<?xml version="1.0" encoding="utf-8"?>
<!-- Generator: Adobe Illustrator 21.0.0, SVG Export Plug-In . SVG Version: 6.00 Build 0)  -->
<svg version="1.1" id="Layer_1" xmlns="http://www.w3.org/2000/svg" xmlns:xlink="http://www.w3.org/1999/xlink" x="0px" y="0px"
	 viewBox="0 0 40 40" style="enable-background:new 0 0 40 40;" xml:space="preserve">
<title>icon /spacetype/icon_fandb_04</title>
<desc>Created with Sketch.</desc>
<g>
	<path d="M9,12.5c-2.5,0-4.5-2-4.5-4.5s2-4.5,4.5-4.5c1.8,0,3.3,1,4,2.5h1.1C13.3,4,11.3,2.5,9,2.5C6,2.5,3.5,5,3.5,8S6,13.5,9,13.5
		c0.8,0,1.6-0.2,2.3-0.5l-0.5-0.9C10.2,12.4,9.6,12.5,9,12.5z"/>
	<path d="M30,3.5h3v-1h-3c-0.7,0-1.6,0.5-2,1L25.7,7H8l12,17.1V37h-5v1h11v-1h-5V24L33,7h-6.1l1.9-2.9C29.1,3.8,29.6,3.5,30,3.5z
		 M31.1,8L20.5,23L9.9,8h15.1l-4.5,6.7l0.8,0.6L26.3,8H31.1z"/>
</g>
</svg>
