<?xml version="1.0" encoding="utf-8"?>
<!-- Generator: Adobe Illustrator 21.0.0, SVG Export Plug-In . SVG Version: 6.00 Build 0)  -->
<svg version="1.1" id="Layer_1" xmlns="http://www.w3.org/2000/svg" xmlns:xlink="http://www.w3.org/1999/xlink" x="0px" y="0px"
	 viewBox="0 0 40 40" style="enable-background:new 0 0 40 40;" xml:space="preserve">
<title>icon /spacetype/icon_shops_02</title>
<desc>Created with Sketch.</desc>
<g>
	<path d="M2,1v4v0v1v2c0,1,0.4,1.9,1,2.6V39h34V10.6C37.6,9.9,38,9,38,8V6V5v0V1H2z M24,6h6v2c0,1.7-1.3,3-3,3s-3-1.3-3-3V6z M17,6
		h6v2c0,1.7-1.3,3-3,3s-3-1.3-3-3V6z M10,6h6v2c0,1.7-1.3,3-3,3s-3-1.3-3-3V6z M3,8V6h6v2c0,1.7-1.3,3-3,3S3,9.7,3,8z M4,38V11.4
		C4.6,11.8,5.3,12,6,12c1.5,0,2.8-0.9,3.5-2.1c0.7,1.2,2,2.1,3.5,2.1s2.8-0.9,3.5-2.1c0.7,1.2,2,2.1,3.5,2.1c1.5,0,2.8-0.9,3.5-2.1
		c0.7,1.2,2,2.1,3.5,2.1s2.8-0.9,3.5-2.1c0.7,1.2,2,2.1,3.5,2.1c0.7,0,1.4-0.2,2-0.6V38H4z M37,8c0,1.7-1.3,3-3,3s-3-1.3-3-3V6h6V8z
		 M3,5V2h34v3H3z"/>
	<polygon points="7,15 6,15 6,38 7,38 7,16 18,16 18,38 19,38 19,16 19,15 18,15 	"/>
	<rect x="14" y="26" width="2" height="2"/>
	<path d="M21,26h13V15H21V26z M22,16h11v9H22V16z"/>
</g>
</svg>
