<svg width="135" height="135" viewBox="0 0 135 135" fill="none" xmlns="http://www.w3.org/2000/svg">
<path d="M130.625 64.6825L70.2504 4.3075C67.8354 1.8925 64.4813 0.416668 60.7917 0.416668H13.8334C6.45419 0.416668 0.416687 6.45417 0.416687 13.8333V60.7917C0.416687 64.4813 1.89252 67.8354 4.3746 70.3175L64.7496 130.693C67.1646 133.108 70.5188 134.583 74.2084 134.583C77.8979 134.583 81.2521 133.108 83.6671 130.625L130.625 83.6671C133.108 81.2521 134.583 77.8979 134.583 74.2083C134.583 70.5187 133.04 67.0975 130.625 64.6825ZM23.8959 33.9583C18.3279 33.9583 13.8334 29.4638 13.8334 23.8958C13.8334 18.3279 18.3279 13.8333 23.8959 13.8333C29.4638 13.8333 33.9584 18.3279 33.9584 23.8958C33.9584 29.4638 29.4638 33.9583 23.8959 33.9583Z" fill="#232323"/>
</svg>