<svg width="116" height="131" viewBox="0 0 116 131" fill="none" xmlns="http://www.w3.org/2000/svg">
<path d="M49.1716 3.17157L52 0.34314L54.8284 3.17157C70.1356 18.4787 85.1781 26 100 26H104V51.3513C101.493 49.9009 98.8133 48.7148 96 47.8312V33.8466C81.9371 32.7671 68.025 25.9962 54.2879 13.6799L52 11.5758L49.7121 13.6799C35.975 25.9962 22.0629 32.7671 8 33.8466V78C8 86.5034 22.6903 101.401 52 121.183C54.227 119.68 56.3696 118.205 58.4277 116.759C60.6231 118.587 63.0173 120.183 65.573 121.512C63.654 122.881 61.6631 124.273 59.6002 125.689L54.2188 129.328L52 130.807L44.3998 125.689C14.7785 105.358 0 89.917 0 78V26H4C18.8218 26 33.8644 18.4787 49.1716 3.17157Z" fill="black"/>
<path d="M77.3726 80.3431L71.7157 86L83.0294 97.3137L100 80.3431L94.3431 74.6863L83.0294 86L77.3726 80.3431Z" fill="black"/>
<path fill-rule="evenodd" clip-rule="evenodd" d="M84 54C101.673 54 116 68.3269 116 86C116 103.673 101.673 118 84 118C66.3269 118 52 103.673 52 86C52 68.3269 66.3269 54 84 54ZM84 62C70.7452 62 60 72.7452 60 86C60 99.2548 70.7452 110 84 110C97.2548 110 108 99.2548 108 86C108 72.7452 97.2548 62 84 62Z" fill="black"/>
</svg>
