<svg width="24" height="24" viewBox="0 0 24 24" fill="none" xmlns="http://www.w3.org/2000/svg">
  <path fill-rule="evenodd" clip-rule="evenodd" d="M15.066 15.2983L14.3988 15.9655L15.7357 17.3025L14.3838 18.6544L15.0631 19.3337L16.415 17.9818L17.8307 19.3975L18.4979 18.7303L17.0822 17.3146L18.4341 15.9627L17.7548 15.2834L16.4029 16.6353L15.066 15.2983ZM21.0564 17.348C21.0564 14.7612 18.9892 12.6566 16.4484 12.6566C13.9075 12.6566 11.8403 14.7612 11.8403 17.348C11.8403 19.9348 13.9075 22.0394 16.4484 22.0394C18.9892 22.0394 21.0564 19.9348 21.0564 17.348ZM22 17.348C22 20.4645 19.5095 23 16.4484 23C13.3872 23 10.8968 20.4645 10.8968 17.348C10.8968 14.2315 13.3872 11.6959 16.4484 11.6959C19.5095 11.6959 22 14.2315 22 17.348ZM10.0745 18.3933C10.081 18.719 10.1061 19.0399 10.1521 19.354H2V4.01024H4.95452V2H5.89809V4.01024H14.0181V2H14.9617V4.01024H17.8779V10.7916C17.7218 10.7814 17.5648 10.7745 17.4061 10.7745C17.2474 10.7745 17.0904 10.7814 16.9343 10.7916V4.97088H14.9617V6.91675H14.0181V4.97088H5.89809V6.91675H4.95452V4.97088H2.94357V18.3933H10.0745Z" fill="#BAA082"/>
</svg>
