<svg width="18" height="18" viewBox="0 0 18 18" fill="none" xmlns="http://www.w3.org/2000/svg">
<path fill-rule="evenodd" clip-rule="evenodd" d="M9 0C6.55575 0 6.24975 0.0105 5.28975 0.054C2.02125 0.204 0.20475 2.0175 0.05475 5.289C0.0105 6.24975 0 6.55575 0 9C0 11.4443 0.0105 11.751 0.054 12.711C0.204 15.9795 2.0175 17.796 5.289 17.946C6.24975 17.9895 6.55575 18 9 18C11.4443 18 11.751 17.9895 12.711 17.946C15.9765 17.796 17.7975 15.9825 17.9452 12.711C17.9895 11.751 18 11.4443 18 9C18 6.55575 17.9895 6.24975 17.946 5.28975C17.799 2.02425 15.9832 0.20475 12.7118 0.05475C11.751 0.0105 11.4443 0 9 0ZM9 1.62225C11.403 1.62225 11.688 1.63125 12.6375 1.67475C15.0765 1.78575 16.2157 2.943 16.3267 5.364C16.3703 6.31275 16.3785 6.59775 16.3785 9.00075C16.3785 11.4045 16.3695 11.6888 16.3267 12.6375C16.215 15.0563 15.0787 16.2157 12.6375 16.3267C11.688 16.3703 11.4045 16.3792 9 16.3792C6.597 16.3792 6.312 16.3703 5.36325 16.3267C2.91825 16.215 1.785 15.0525 1.674 12.6367C1.6305 11.688 1.6215 11.4037 1.6215 9C1.6215 6.597 1.63125 6.31275 1.674 5.36325C1.78575 2.943 2.922 1.785 5.36325 1.674C6.31275 1.63125 6.597 1.62225 9 1.62225ZM4.3785 9C4.3785 6.44775 6.44775 4.3785 9 4.3785C11.5522 4.3785 13.6215 6.44775 13.6215 9C13.6215 11.553 11.5522 13.6222 9 13.6222C6.44775 13.6222 4.3785 11.5522 4.3785 9ZM9 12C7.34325 12 6 10.6575 6 9C6 7.34325 7.34325 6 9 6C10.6567 6 12 7.34325 12 9C12 10.6575 10.6567 12 9 12ZM12.7238 4.19625C12.7238 3.6 13.2075 3.11625 13.8045 3.11625C14.4008 3.11625 14.8837 3.6 14.8837 4.19625C14.8837 4.7925 14.4008 5.27625 13.8045 5.27625C13.2075 5.27625 12.7238 4.7925 12.7238 4.19625Z" fill="#BEBEBE"/>
</svg>
