<?xml version="1.0" ?><svg data-name="Layer 21" height="24" id="Layer_21" viewBox="0 0 24 24" width="24" xmlns="http://www.w3.org/2000/svg"><title/><path d="M12.05689,3.41667A6.92132,6.92132,0,0,0,4.99219,10.187a3.93842,3.93842,0,0,0,1.937,3.67044.53625.53625,0,0,0,.79812-.33718l.19277-.823a.50436.50436,0,0,0-.14323-.499,2.69066,2.69066,0,0,1-.73672-2.39653,5.03722,5.03722,0,0,1,4.975-4.57643c3.12027-.05518,5.00867,1.8975,4.3626,5.66614-.68545,3.99861-3.9774,4.86143-4.75694,2.69328a2.00728,2.00728,0,0,1,.02829-1.21247c.17891-.61969.4894-1.59175.64116-2.13062.35887-1.27427.23248-2.45578-.92719-2.74062-.89886-.22077-1.805.38623-2.19719,1.76525a3.88589,3.88589,0,0,0,.22638,2.4543L8.01981,17.405a4.37535,4.37535,0,0,0-.118,1.21957l.12181,2.76261A.236.236,0,0,0,8.468,21.487l1.32992-2.51835a4.37535,4.37535,0,0,0,.36863-.954l.71136-2.7678c2.35839,3.0342,7.31862.59536,7.99979-3.96644C19.651,6.10086,16.68257,3.45868,12.05689,3.41667Z"/></svg>