<svg id="_01" data-name="01" xmlns="http://www.w3.org/2000/svg" viewBox="0 0 92.02 15"><defs><style>.cls-1{fill:#010101;fill-rule:evenodd;}</style></defs><title>Logos</title><path id="AppearHere" class="cls-1" d="M87.8,15V13.16h2V1.84h-2V0H92V15H87.8ZM81.57,8.76a1.07,1.07,0,0,0,1.11,1.16,1,1,0,0,0,.93-0.56h1.53a2.37,2.37,0,0,1-2.48,1.7,2.54,2.54,0,0,1-2.73-2.72,2.65,2.65,0,0,1,2.69-2.69c1.79,0,2.68,1.38,2.6,3.12H81.57Zm1.06-2a1.09,1.09,0,0,0-1.06,1h2A1,1,0,0,0,82.63,6.78ZM79,7.16A1.16,1.16,0,0,0,77.8,8.38v2.53H76.17V5.79h1.59v0.9h0a1.49,1.49,0,0,1,1.5-1,1.71,1.71,0,0,1,.38,0V7.26A2,2,0,0,0,79,7.16Zm-7.29,1.6a1.07,1.07,0,0,0,1.12,1.16,1,1,0,0,0,.93-0.56h1.53a2.37,2.37,0,0,1-2.48,1.7A2.54,2.54,0,0,1,70.1,8.34,2.65,2.65,0,0,1,72.8,5.65c1.79,0,2.68,1.38,2.6,3.12H71.74Zm1.06-2a1.09,1.09,0,0,0-1.06,1h2A1,1,0,0,0,72.8,6.78ZM67.72,8.44V7.92A0.75,0.75,0,0,0,66.9,7,1,1,0,0,0,66,8.12v2.79H64.38v-7H66V6.49h0a1.74,1.74,0,0,1,1.52-.85,1.68,1.68,0,0,1,1.8,2v3.28H67.72V8.44ZM56.72,0h4.23V1.84H59V13.16h2V15H56.72V0ZM49.09,8.18V12H46.81V3.52H49V5.09h0a2.91,2.91,0,0,1,2.64-1.81,1.65,1.65,0,0,1,.5.08V5.54a4,4,0,0,0-.82-0.08C49.65,5.45,49.09,6.67,49.09,8.18Zm-6.1,3a3.72,3.72,0,0,1-2.79,1.05c-1.59,0-2.82-.81-2.82-2.55,0-3.86,5.6-1.79,5.51-3.7,0-1-.67-1.15-1.47-1.15a1.3,1.3,0,0,0-1.5,1.28H37.63c0.13-2.17,2-2.84,3.89-2.84,1.65,0,3.64.38,3.64,2.42v4.42A4.45,4.45,0,0,0,45.45,12H43.14A3.55,3.55,0,0,1,43,11.19Zm-0.1-3.34A4.43,4.43,0,0,1,41,8.35a1.3,1.3,0,0,0-1.34,1.25A1.13,1.13,0,0,0,41,10.68a1.71,1.71,0,0,0,1.84-2V7.85Zm-12.23.48c0.06,1.49.75,2.15,2,2.15a1.87,1.87,0,0,0,1.79-1.1h2a3.72,3.72,0,0,1-3.87,2.86c-2.61,0-4.23-1.84-4.23-4.47a4.21,4.21,0,0,1,4.23-4.49c2.82,0,4.2,2.43,4,5h-6ZM32.54,5a1.81,1.81,0,0,0-1.89,1.81h3.7C34.14,5.67,33.65,5,32.54,5Zm-8.62,7.2A2.92,2.92,0,0,1,21.44,11h0v4H19.13V3.52h2.16V4.6h0a2.72,2.72,0,0,1,2.47-1.31c2.59,0,3.76,2.15,3.76,4.57S26.35,12.24,23.92,12.24ZM23.29,5c-1.49,0-2,1.36-2,2.74s0.51,2.69,2,2.69,2-1.31,2-2.69S24.75,5,23.29,5Zm-9.07,7.2A2.91,2.91,0,0,1,11.74,11h0v4H9.43V3.52H11.6V4.6h0a2.72,2.72,0,0,1,2.47-1.31c2.59,0,3.76,2.15,3.76,4.57S16.66,12.24,14.22,12.24ZM13.6,5c-1.49,0-2,1.36-2,2.74s0.51,2.69,2,2.69,2-1.31,2-2.69S15.06,5,13.6,5Zm-8,6.14a3.72,3.72,0,0,1-2.79,1.05C1.23,12.24,0,11.43,0,9.69,0,5.83,5.6,7.9,5.51,6c0-1-.67-1.15-1.47-1.15a1.3,1.3,0,0,0-1.5,1.28H0.26C0.38,4,2.29,3.29,4.15,3.29c1.65,0,3.64.38,3.64,2.42v4.42A4.46,4.46,0,0,0,8.07,12H5.77A3.51,3.51,0,0,1,5.6,11.19ZM5.51,7.85a4.43,4.43,0,0,1-1.89.49A1.3,1.3,0,0,0,2.27,9.59a1.13,1.13,0,0,0,1.39,1.08,1.71,1.71,0,0,0,1.84-2V7.85Z"/></svg>