<svg width="16px" height="16px" viewBox="0 -1 16 16" version="1.1" xmlns="http://www.w3.org/2000/svg" xmlns:xlink="http://www.w3.org/1999/xlink">
    <!-- Generator: Sketch 39.1 (31720) - http://www.bohemiancoding.com/sketch -->
    <desc>Created with Sketch.</desc>
    <defs></defs>
    <g id="Page-1" stroke="none" stroke-width="1" fill="none" fill-rule="evenodd" transform="translate(1.000000, 0.000000)" stroke-linecap="round" stroke-linejoin="round">
        <path d="M8.1204375,13.967975 L8.0346875,13.882225 C7.9498125,13.79735 7.8220625,13.754475 7.6934375,13.754475 C7.5656875,13.754475 7.4379375,13.79735 7.3521875,13.882225 L6.8403125,14.43785 L6.3275625,13.882225 C6.2426875,13.79735 6.1140625,13.754475 5.9863125,13.754475 C5.8585625,13.754475 5.7299375,13.79735 5.6450625,13.882225 L5.1323125,14.43785 L4.6204375,13.882225 C4.5346875,13.79735 4.4069375,13.754475 4.2791875,13.754475 C4.1505625,13.754475 4.0228125,13.79735 3.9379375,13.882225 L3.4251875,14.43785 L2.9133125,13.882225 C2.8275625,13.79735 2.6998125,13.754475 2.5720625,13.754475 C2.4434375,13.754475 2.3156875,13.79735 2.2299375,13.882225 L1.7180625,14.43785 L1.2061875,13.882225 C1.0346875,13.7116 0.6934375,13.7116 0.5228125,13.882225 L0.4379375,13.967975 L0.4379375,5.51635 L0.4379375,4.577475 C0.5228125,3.51085 0.8220625,2.486225 1.2910625,1.717975 C1.8029375,0.90685 2.4863125,0.43785 3.2116875,0.43785 L11.0236875,0.43785 C8.8921875,0.730975 8.2061875,2.827475 8.1204375,4.535475 L8.1204375,4.876725 L8.1204375,5.004475 L8.1204375,13.967975 L8.1204375,13.967975 Z" id="Stroke-1" stroke="#000000"></path>
        <path d="M11.0236,9.571625 C9.4871,9.571625 8.2061,7.480375 8.2061,5.004125 C8.2061,2.52875 9.4871,0.4375 11.0236,0.4375 C12.5601,0.4375 13.8411,2.52875 13.8411,5.004125 C13.8411,7.480375 12.517225,9.571625 11.0236,9.571625 L11.0236,9.571625 Z" id="Stroke-3" stroke="#000000"></path>
        <path d="M11.0236,9.571625 L8.2061,9.571625" id="Stroke-5" stroke="#000000"></path>
        <path d="M0.4375,7.1423625 L1.920625,7.1423625" id="Stroke-7" stroke="#000000"></path>
        <path d="M3.4271125,7.1423625 L4.9102375,7.1423625" id="Stroke-9" stroke="#000000"></path>
        <path d="M6.416725,7.1423625 L7.89985,7.1423625" id="Stroke-11" stroke="#000000"></path>
        <path d="M11.570475,5.0045625 C11.570475,5.4683125 11.325475,5.8445625 11.0236,5.8445625 C10.721725,5.8445625 10.476725,5.4683125 10.476725,5.0045625 C10.476725,4.5408125 10.721725,4.1645625 11.0236,4.1645625 C11.325475,4.1645625 11.570475,4.5408125 11.570475,5.0045625 L11.570475,5.0045625 Z" id="Stroke-13" stroke="#000000"></path>
    </g>
</svg>