<svg id="Layer_1" data-name="Layer 1" xmlns="http://www.w3.org/2000/svg" viewBox="0 0 16 16"><defs><style>.cls-1{fill:none;stroke:#231f20;stroke-linecap:round;stroke-linejoin:round;}</style></defs><title>Notification_Icon</title><path class="cls-1" d="M10.33,13.53h0a1.88,1.88,0,0,1-1.88,1.88h0a1.88,1.88,0,0,1-1.88-1.88h0M10.33,1A6.45,6.45,0,0,0,8.08.59h0A6.7,6.7,0,0,0,1.47,7.33V13M14.7,13V7.33a6.82,6.82,0,0,0-.19-1.62M.58,13.13H15.42M13.26,1A1.74,1.74,0,1,0,15,2.74,1.74,1.74,0,0,0,13.26,1Z"/></svg>