<svg id="Layer_1" data-name="Layer 1" xmlns="http://www.w3.org/2000/svg" viewBox="0 0 16 16"><defs><style>.cls-1{fill:none;stroke:#000;stroke-linecap:round;stroke-linejoin:round;}</style></defs><title>icon</title><path class="cls-1" d="M8,14.13v1.22M8,3.49A4.16,4.16,0,0,0,4,8.7,3.93,3.93,0,0,0,5.56,11,4,4,0,0,0,8,11.81,4.16,4.16,0,0,0,8,3.49M4.4,12.64A5.93,5.93,0,0,0,8,13.8,6.15,6.15,0,0,0,8,1.5M6.2,15.5H10M6.92,11.6a2.41,2.41,0,0,0,.6-1.84c0.09-.89-0.61-1.17-1-1.87A5.18,5.18,0,0,1,6.36,6a5.46,5.46,0,0,0-1-1.44m4.53-.42S8.83,6,10,7A4.69,4.69,0,0,0,12,7.88"/></svg>