<svg width="24" height="24" viewBox="0 0 24 24" fill="none" xmlns="http://www.w3.org/2000/svg">
<path fill-rule="evenodd" clip-rule="evenodd" d="M17.9146 6.9852C18.566 7.16043 19.079 7.67675 19.2531 8.33236L19.2531 8.33243C19.5695 9.52075 19.5695 12.0002 19.5695 12.0002C19.5695 12.0002 19.5695 14.4795 19.2531 15.6679C19.0789 16.3235 18.566 16.8398 17.9145 17.0152C16.7339 17.3335 11.9995 17.3335 11.9995 17.3335C11.9995 17.3335 7.26518 17.3335 6.08453 17.0152C5.43311 16.8397 4.92001 16.3235 4.74601 15.6679C4.42969 14.4794 4.42969 12.0001 4.42969 12.0001C4.42969 12.0001 4.42969 9.52069 4.74601 8.33236C4.92001 7.67675 5.43311 7.16043 6.08459 6.9852C7.26524 6.66675 11.9996 6.66675 11.9996 6.66675C11.9996 6.66675 16.734 6.66675 17.9146 6.9852ZM14.4101 12L10.4531 14.251V9.74878L14.4101 12Z" fill="#BEBEBE"/>
</svg>
