<?xml version="1.0" encoding="utf-8"?>
<!-- Generator: Adobe Illustrator 21.0.0, SVG Export Plug-In . SVG Version: 6.00 Build 0)  -->
<svg version="1.1" id="Layer_1" xmlns="http://www.w3.org/2000/svg" xmlns:xlink="http://www.w3.org/1999/xlink" x="0px" y="0px"
	 viewBox="0 0 16 16" style="enable-background:new 0 0 16 16;" xml:space="preserve">
<g>
	<path d="M0.5,15.5c-0.1,0-0.2,0-0.3-0.1C0.1,15.3,0,15.2,0,15V2.9c0-0.2,0.1-0.4,0.3-0.5l5-1.9c0.2-0.1,0.3,0,0.5,0.1
		C5.9,0.7,6,0.8,6,1v12.1c0,0.2-0.1,0.4-0.3,0.5l-5,1.9C0.6,15.5,0.6,15.5,0.5,15.5z M1,3.2v11.1l4-1.5V1.7L1,3.2z M5.5,13.1
		L5.5,13.1L5.5,13.1z"/>
</g>
<g>
	<path d="M10.5,15.5c-0.1,0-0.2,0-0.3-0.1C10.1,15.3,10,15.2,10,15V2.9c0-0.2,0.1-0.4,0.3-0.5l5-1.9c0.2-0.1,0.3,0,0.5,0.1
		C15.9,0.7,16,0.8,16,1v12.1c0,0.2-0.1,0.4-0.3,0.5l-5,1.9C10.6,15.5,10.6,15.5,10.5,15.5z M11,3.2v11.1l4-1.5V1.7L11,3.2z
		 M15.5,13.1L15.5,13.1L15.5,13.1z"/>
</g>
<g>
	<path d="M10.5,15.5c-0.1,0-0.1,0-0.2,0l-5-1.9C5.1,13.5,5,13.3,5,13.1V1c0-0.2,0.1-0.3,0.2-0.4c0.1-0.1,0.3-0.1,0.5-0.1l5,1.9
		C10.9,2.5,11,2.7,11,2.9V15c0,0.2-0.1,0.3-0.2,0.4C10.7,15.5,10.6,15.5,10.5,15.5z M6,12.8l4,1.5V3.2L6,1.7V12.8z"/>
</g>
</svg>
