<svg id="Layer_1" data-name="Layer 1" xmlns="http://www.w3.org/2000/svg" viewBox="0 0 16 16"><defs><style>.cls-1{fill:none;stroke:#000;stroke-linecap:round;stroke-linejoin:round;}</style></defs><title>icon</title><path id="chatting" class="cls-1" d="M6.52,8L5.27,9.33,5.24,8H2.69A2.19,2.19,0,0,1,.5,5.87V5A2.19,2.19,0,0,1,2.69,2.78H6.52A2.19,2.19,0,0,1,8.7,5V5.87A2.19,2.19,0,0,1,6.52,8h0ZM9.78,6.67h3.54A2.19,2.19,0,0,1,15.5,8.84V9.75a2.19,2.19,0,0,1-2.19,2.18H10.76l0,1.29L9.48,11.93h0A2.19,2.19,0,0,1,7.3,9.75V9"/></svg>