<svg id="Layer_3" data-name="Layer 3" xmlns="http://www.w3.org/2000/svg" viewBox="0 0 42 42"><defs><style>.cls-1,.cls-2{fill:none;stroke-linecap:round;}.cls-1{stroke:#5a5a5a;stroke-linejoin:round;fill-rule:evenodd;}.cls-2{stroke:#c2a888;stroke-miterlimit:10;}.cls-3{fill:#5a5a5a;}</style></defs><title>Icons</title><path class="cls-1" d="M28.45,20.66H26.06a4.15,4.15,0,1,1,0-8.29h4.21a4.15,4.15,0,0,1,4.15,4.15V24a4.15,4.15,0,0,1-4.15,4.15h-3"/><path class="cls-1" d="M32,28a4.15,4.15,0,0,1-4.15,4.15H23V29.41a2.66,2.66,0,0,0-5.32,0v2.72H12.77A4.15,4.15,0,0,1,8.63,28V15"/><path class="cls-1" d="M28.75,32v5.11a2.48,2.48,0,0,1-2.47,2.47H14.36a2.48,2.48,0,0,1-2.47-2.47V32"/><line id="_gold_" data-name="&lt;gold&gt;" class="cls-2 highlight" x1="17.81" y1="35.14" x2="22.81" y2="35.14"/><line id="_gold_2" data-name="&lt;gold&gt;" class="cls-2 highlight" x1="17.81" y1="37.14" x2="22.81" y2="37.14"/><circle class="cls-3" cx="20.32" cy="32.04" r="0.5"/><circle class="cls-3" cx="20.32" cy="29.41" r="0.5"/><path class="cls-1" d="M22.71,19h-7a8.32,8.32,0,0,1-8.29-8.29h0a8.32,8.32,0,0,1,8.29-8.29h9.34a8.32,8.32,0,0,1,8.29,8.29h0a8.22,8.22,0,0,1-.43,2.64"/></svg>