<svg id="Layer_3" data-name="Layer 3" xmlns="http://www.w3.org/2000/svg" viewBox="0 0 42 42"><defs><style>.cls-1,.cls-2{fill:none;}.cls-1{stroke:#5a5a5a;stroke-linecap:round;stroke-linejoin:round;}.cls-2{stroke:#bba080;stroke-miterlimit:10;stroke-width:2px;}</style></defs><title>Icons</title><path id="cow" class="cls-1" d="M9.81,24.27,5.53,28.84v8.29H2.29V18a5.15,5.15,0,0,1,5.14-5.14H26.74m1,13V37.74H24.45v-12m0,.56h-11a4.24,4.24,0,0,1-3.63-2.06m22.4-4.73H30.09a1.89,1.89,0,0,1-1.86-1.94,1.75,1.75,0,0,1,.17-.82l-2-5.83-1.08.3a4.2,4.2,0,0,1-1.17.22,1.82,1.82,0,0,1-1.81-1.12,1.64,1.64,0,0,1,.17-1.68c.17-.17.52-.39,1.68-.39a12.53,12.53,0,0,1,2.07.22v0a3.27,3.27,0,0,1,0-.65v0L26.37,6c0-.43.09-.86.13-1.21,0-.17,0-.3,0-.39a.54.54,0,0,1,.52-.56h.48V6.58a.87.87,0,0,0,.86.86h5.36a.87.87,0,0,0,.86-.86V3.86h.48c.43,0,.48.43.52.56s0,.22,0,.39c0,.35.09.78.13,1.21L36,7.75v.69a13.67,13.67,0,0,1,1.77-.13c1.25,0,1.64.22,1.81.39a1.48,1.48,0,0,1,.22,1.6,1.93,1.93,0,0,1-2,1.21h0a5.07,5.07,0,0,1-1.3-.22,6.66,6.66,0,0,0-.73-.22l-1.9,5.57a2,2,0,0,1,.26,1A1.91,1.91,0,0,1,32.21,19.54ZM12.79,26.28c-.3,1.9-2.25,3-4.54,3h0a6.14,6.14,0,0,1-2.55-.64m22-2.59c1.6-.22,3.77-1.7,3.56-6.15"/><g id="_gold_" data-name="&lt;gold&gt;"><circle id="_gold_2" data-name="&lt;gold&gt;" class="cls-2 highlight" cx="17.29" cy="21.71" r="12.42"/><line id="_gold_3" data-name="&lt;gold&gt;" class="cls-2 highlight" x1="9.17" y1="12.07" x2="26.25" y2="30.19"/></g></svg>