<svg id="Layer_3" data-name="Layer 3" xmlns="http://www.w3.org/2000/svg" viewBox="0 0 42 42"><defs><style>.cls-1,.cls-2{fill:none;}.cls-1{stroke:#5a5a5a;stroke-linecap:round;stroke-linejoin:round;}.cls-2{stroke:#c2a888;stroke-miterlimit:10;}</style></defs><title>Icons</title><rect class="cls-1" x="8.98" y="27.76" width="3.01" height="9.99" rx="1.01" ry="1.01" transform="translate(13.63 -1.49) rotate(23)"/><path class="cls-1" d="M21.12,24.51A8.87,8.87,0,0,1,19,24a.35.35,0,0,0-.44.2l-2.5,5.88-3.64,8.58a2.86,2.86,0,0,1-3.73,1.51l-2.25-1a2.86,2.86,0,0,1-1.51-3.73l3.64-8.58a2.86,2.86,0,0,1,3.73-1.51l.6.26a2.91,2.91,0,0,0,3.73-1.51,6.5,6.5,0,0,0,1.1-3.17"/><path class="cls-1" d="M22.92,24.18l2.5,5.88,3.64,8.58a2.86,2.86,0,0,0,3.73,1.51l2.25-1a2.86,2.86,0,0,0,1.51-3.73l-3.64-8.58a2.86,2.86,0,0,0-3.73-1.51l-.6.26c-1.44.61-2.47,0-3.33-1.66a8.21,8.21,0,0,1-.73-2.85"/><circle id="_gold_" data-name="&lt;gold&gt;" class="cls-2 highlight fill" cx="21.12" cy="21.11" r="1.24"/><rect class="cls-1" x="29.51" y="27.76" width="3.01" height="9.99" rx="1.01" ry="1.01" transform="translate(-10.64 15.45) rotate(-24)"/><path class="cls-1" d="M19.26,18.12,14.32,4.5a2.93,2.93,0,0,1,.92-3L21.9,14.94"/><path class="cls-1" d="M17.72,21.11a3.39,3.39,0,0,1,2.6-3.31l.39-.07,2-4.13,6-12.14a2.93,2.93,0,0,1,.92,3L25,17l-.79,2.72a3.41,3.41,0,0,1-3.1,4.82h0"/><line class="cls-1" x1="22.02" y1="1.76" x2="22.02" y2="4.76"/><line class="cls-1" x1="22.02" y1="6.76" x2="22.02" y2="9.76"/></svg>