<svg id="Layer_3" data-name="Layer 3" xmlns="http://www.w3.org/2000/svg" viewBox="0 0 42 42"><defs><style>.cls-1{fill:none;stroke:#5a5a5a;stroke-linecap:round;stroke-linejoin:round;}.cls-2{fill:#c2a888;}</style></defs><title>Icons</title><polyline class="cls-1" points="25.11 15.88 30.54 24.95 15.21 31.5 10.04 24.34 9.94 10.51 21.22 10.51"/><rect class="cls-1" x="32.06" y="10.51" width="8.6" height="14.13"/><path class="cls-1" d="M32.06,10.51H21.22s-.41.3-5.64,4.78C14,16.7,14.31,17.89,15,18.79a2.67,2.67,0,0,0,3.39.55C24.45,16,25,15.72,25,15.72l5.15,8.61h1.9Z"/><line class="cls-1" x1="23.15" y1="21.2" x2="26.22" y2="26.52"/><line class="cls-1" x1="19.77" y1="24.03" x2="22.23" y2="28.28"/><line class="cls-1" x1="16.7" y1="27.1" x2="18.23" y2="29.76"/><circle id="_gold_" data-name="&lt;gold&gt;" class="cls-2 highlight fill" cx="5.64" cy="21" r="1.23"/><circle id="_gold_2" data-name="&lt;gold&gt;" class="cls-2 highlight fill" cx="36.36" cy="21" r="1.23"/><rect class="cls-1" x="1.34" y="10.51" width="8.6" height="14.13"/></svg>