<svg id="Layer_3" data-name="Layer 3" xmlns="http://www.w3.org/2000/svg" viewBox="0 0 42 42"><defs><style>.cls-1{fill:none;stroke:#5a5a5a;stroke-linecap:round;stroke-linejoin:round;}.cls-2{fill:#c2a888;}.cls-3{fill:#5a5a5a;fill-rule:evenodd;}</style></defs><title>Icons</title><rect class="cls-1" x="0.97" y="18.84" width="40.06" height="16.32"/><g id="_gold_" data-name="&lt;gold&gt;"><path class="cls-2 fill noStroke" d="M7.68,26.77a3.57,3.57,0,0,1,.25-1.37,3,3,0,0,1,.71-1,3.12,3.12,0,0,1,1.08-.66,4.13,4.13,0,0,1,2.72,0,3.12,3.12,0,0,1,1.08.66,3,3,0,0,1,.71,1,3.84,3.84,0,0,1,0,2.74,3,3,0,0,1-.71,1,3.12,3.12,0,0,1-1.08.66,4.13,4.13,0,0,1-2.72,0,3.12,3.12,0,0,1-1.08-.66,3,3,0,0,1-.71-1A3.56,3.56,0,0,1,7.68,26.77Zm1.44,0a2.31,2.31,0,0,0,.14.81,1.85,1.85,0,0,0,.4.64,1.79,1.79,0,0,0,.62.42,2.22,2.22,0,0,0,1.61,0,1.81,1.81,0,0,0,.62-.42,1.86,1.86,0,0,0,.4-.64,2.45,2.45,0,0,0,0-1.62,1.85,1.85,0,0,0-.4-.65,1.81,1.81,0,0,0-.62-.42,2.22,2.22,0,0,0-1.61,0,1.79,1.79,0,0,0-.62.42,1.83,1.83,0,0,0-.4.65A2.32,2.32,0,0,0,9.13,26.77Z"/><path class="cls-2 fill noStroke" d="M15.47,23.61h2.34a4.61,4.61,0,0,1,.93.09,2.11,2.11,0,0,1,.76.31,1.55,1.55,0,0,1,.52.59,2,2,0,0,1,.19.93,2.15,2.15,0,0,1-.18.93,1.52,1.52,0,0,1-.49.6,2,2,0,0,1-.74.32,4.32,4.32,0,0,1-.93.09h-1v2.46H15.47Zm1.39,2.67h.93a1.75,1.75,0,0,0,.36,0,1,1,0,0,0,.31-.12.63.63,0,0,0,.22-.23.74.74,0,0,0,.08-.37.63.63,0,0,0-.11-.39.74.74,0,0,0-.29-.23,1.2,1.2,0,0,0-.39-.1l-.41,0h-.71Z"/><path class="cls-2 fill noStroke" d="M21.18,23.61h4.28V24.9H22.57v1.17H25.3v1.28H22.57v1.28h3.05v1.28H21.18Z"/><path class="cls-2 fill noStroke" d="M26.78,23.61h1.89L31.35,28h0V23.61h1.39v6.3H30.94l-2.75-4.49h0v4.49H26.78Z"/></g><path class="cls-1" d="M11.11,18.66,20.19,7.39a1.48,1.48,0,0,1,2.33,0l8.62,11.24"/><path class="cls-3" d="M22.17,8.86a.77.77,0,1,1-.77-.77.77.77,0,0,1,.77.77"/></svg>