<svg id="Layer_1" data-name="Layer 1" xmlns="http://www.w3.org/2000/svg" viewBox="0 0 16 16"><defs><style>.cls-1{fill:none;stroke:#231f20;stroke-linecap:round;stroke-linejoin:round;}</style></defs><title>icon32</title><path class="cls-1" d="M15,15.49H1V.51H15ZM10.12,9.16H5.88v6.33h4.24ZM16,.51H0M1,12.32H5.88m4.56,0h4M1,1.14V2.89A1.75,1.75,0,0,0,2.75,4.64h0A1.75,1.75,0,0,0,4.5,2.89V1.14m0,0V2.89A1.75,1.75,0,0,0,6.25,4.64h0A1.75,1.75,0,0,0,8,2.89V1.14m0,0V2.89A1.75,1.75,0,0,0,9.75,4.64h0A1.75,1.75,0,0,0,11.5,2.89V1.14m0,0V2.89a1.75,1.75,0,0,0,1.75,1.75h0A1.75,1.75,0,0,0,15,2.89V1.14"/></svg>