<svg id="Layer_1" data-name="Layer 1" xmlns="http://www.w3.org/2000/svg" viewBox="0 0 16 16"><defs><style>.cls-1{fill:none;stroke:#000;stroke-linecap:round;stroke-linejoin:round;}</style></defs><title>icon</title><path id="dollar" class="cls-1" d="M7.41,3.21a3.21,3.21,0,0,0-1.91.64,1.91,1.91,0,0,0-.78,1.59,1.71,1.71,0,0,0,.74,1.47,5.19,5.19,0,0,0,2,.79m0.84,5.78a4.79,4.79,0,0,0,1.05-.17,3.05,3.05,0,0,0,1-.46A2.46,2.46,0,0,0,11,12.05a2.49,2.49,0,0,0,.28-1.22,2.08,2.08,0,0,0-.86-1.68,5.84,5.84,0,0,0-2.17-1M7.73,0.5v15m0-1.94s-2.6.11-2.9-1.66M7.35,3.21s3.11-.14,3.48,1.63"/></svg>