<?xml version="1.0" encoding="utf-8"?>
<!-- Generator: Adobe Illustrator 21.0.0, SVG Export Plug-In . SVG Version: 6.00 Build 0)  -->
<svg version="1.1" id="Layer_1" xmlns="http://www.w3.org/2000/svg" xmlns:xlink="http://www.w3.org/1999/xlink" x="0px" y="0px"
	 viewBox="0 0 16 16" style="enable-background:new 0 0 16 16;" xml:space="preserve">
<path d="M15.5,12.5c0.3,0,0.5,0.2,0.5,0.5s-0.2,0.5-0.5,0.5h-15C0.2,13.5,0,13.3,0,13s0.2-0.5,0.5-0.5H15.5z M3,5
	c0,0.8,0.7,1.5,1.5,1.5C5.4,6.5,6,5.8,6,5S5.4,3.5,4.5,3.5C3.7,3.5,3,4.2,3,5z M2.1,5.5H0.5C0.2,5.5,0,5.3,0,5s0.2-0.5,0.5-0.5h1.6
	c0.2-1.1,1.2-2,2.4-2s2.2,0.9,2.4,2h8.5C15.8,4.5,16,4.7,16,5s-0.2,0.5-0.5,0.5H7c-0.2,1.1-1.2,2-2.4,2S2.3,6.6,2.1,5.5z"/>
</svg>
