<svg width="24px" height="24px" viewBox="0 0 24 24" version="1.1" xmlns="http://www.w3.org/2000/svg" xmlns:xlink="http://www.w3.org/1999/xlink">
        <path d="M6.45294237,2.73997204 C8.30545698,2.73997204 9.84110188,4.09665258 10.1205184,5.87065498 L14.310972,5.86997204 L18.003972,2.99997204 L18.0432593,2.97023047 L18.065972,2.99997204 L21,3 L21,4 L18.345972,3.99997204 L15.940972,5.86997204 L19,5.86998602 L12.999972,14.297972 L12.999972,19.999972 L15,20 L15,21 L10,21 L10,20 L11.999972,19.999972 L11.999972,14.297972 L8.58191823,9.4953051 C7.97913227,9.91790334 7.24500016,10.1659127 6.45294237,10.1659127 C4.40232548,10.1659127 2.73997204,8.50355925 2.73997204,6.45294237 C2.73997204,4.40232548 4.40232548,2.73997204 6.45294237,2.73997204 Z M17.061,6.86998602 L7.938,6.86998602 L12.464972,13.227972 L12.534972,13.227972 L17.061,6.86998602 Z M6.45294237,3.73997204 C4.95461023,3.73997204 3.73997204,4.95461023 3.73997204,6.45294237 C3.73997204,7.9512745 4.95461023,9.16591269 6.45294237,9.16591269 C7.02841726,9.16591269 7.56204301,8.98673517 8.00107494,8.68112481 L6,5.86998602 L9.10316454,5.87015047 C8.83649298,4.65190299 7.75121411,3.73997204 6.45294237,3.73997204 Z"></path>
</svg>