<svg width="24px" height="24px" viewBox="0 0 24 24" version="1.1" xmlns="http://www.w3.org/2000/svg" xmlns:xlink="http://www.w3.org/1999/xlink">
        <path d="M3,21 L3,20 L3.99917853,20 L3.99924661,13.8304668 C3.70819161,13.6906228 3.41719972,13.5431378 3.12627782,13.3880117 L2.75717853,13.1870786 L3.24282147,12.3129214 C3.49527426,12.4531729 3.7476663,12.587371 4.00000284,12.7155155 L4,11 L5,11 L4.99973705,13.1916628 C5.66671524,13.4882632 6.33335367,13.7425244 6.99974934,13.9544463 L7,3 L17,3 L16.999251,13.9547642 C17.6659031,13.742803 18.3327982,13.4884699 19.0000332,13.1917649 L19,11 L20,11 L19.9996531,12.7156902 L20.3916586,12.5117802 L20.3916586,12.5117802 L20.7571785,12.3129214 L21.2428215,13.1870786 C20.8285927,13.4172057 20.4142161,13.6318353 19.9997115,13.8309674 L19.9991785,20 L21,20 L21,21 L3,21 Z M4.99967363,14.2809526 L4.99917853,20 L6.99917853,20 L6.99976649,15.000857 C6.49956774,14.8508986 5.99948514,14.6784269 5.49955357,14.483442 L4.99967363,14.2809526 Z M16.9995202,15.0010708 L16.9991785,20 L18.9991785,20 L19.000061,14.2810641 C18.3334758,14.5611078 17.6666013,14.8011101 16.9995202,15.0010708 Z M15.9998158,15.2707264 C13.3339131,15.9098149 10.6653729,15.9097579 7.9994707,15.2705553 L8,20 L16,20 L15.9998158,15.2707264 Z M16,4 L8,4 L7.99926549,14.2405983 C10.6671366,14.9197181 13.3318923,14.9198006 15.9997626,14.2408456 L16,4 Z"></path>
</svg>