<svg xmlns="http://www.w3.org/2000/svg" xmlns:xlink="http://www.w3.org/1999/xlink" width="24" height="24"><defs><path d="M21 6h-.04c-.114.72-.47 1.336-.96 1.715V21H4V7.716c-.49-.38-.847-.995-.96-1.715H3V3h18v3zm-3.892 1.02c-.388.665-1.025 1.1-1.745 1.1-.682 0-1.29-.388-1.682-.994-.39.605-.998.994-1.68.994-.7 0-1.323-.4-1.715-1.045-.4.634-1.012 1.045-1.713 1.045S7.25 7.7 6.858 7.075c-.4.634-1.012 1.045-1.713 1.045L5 8.113V20h4v-8h6v8h4V8.114l-.146.006c-.72 0-1.358-.434-1.747-1.1zM14 13h-4v7h4v-7zM6.33 6H3.962c.166.65.643 1.103 1.184 1.103S6.164 6.65 6.33 6zm3.427 0H7.39c.166.65.643 1.103 1.184 1.103S9.59 6.65 9.756 6zm3.427 0h-2.367c.166.65.643 1.103 1.184 1.103S13.018 6.65 13.184 6zm3.362 0H14.18c.164.65.64 1.103 1.182 1.103S16.38 6.65 16.546 6zm3.492 0H17.67c.166.65.643 1.103 1.184 1.103S19.873 6.65 20.038 6zM20 5V4H4v1h16z" id="A"/></defs><g fill-rule="evenodd"><mask id="B" fill="#fff"><use xlink:href="#A"/></mask><use fill="#979797" xlink:href="#A"/><g mask="url(#B)" fill="#b29577"><path d="M0 0h24v24H0z"/></g></g></svg>