<svg width="24" height="24" xmlns="http://www.w3.org/2000/svg" xmlns:xlink="http://www.w3.org/1999/xlink"><defs><path d="M4 3v3.999h6V3h1v3.999L20 7V3h1v18h-1v-3l-9-.001V21h-1v-3.001H4V21H3V3h1zm16 10l-9-.001v4L20 17v-4zm-10-.001H4v4h1V14h4v2.999h1v-4zM8 15H6v1.999h2V15zm10-6v3h2V8l-9-.001v4h3V9h4zm-1 1h-2v1.999h2V10zm-7-2.001H4v4h6v-4z" id="a"/></defs><g fill="none" fill-rule="evenodd"><mask id="b" fill="#fff"><use xlink:href="#a"/></mask><use fill="#979797" xlink:href="#a"/><g mask="url(#b)" fill="#B29577"><path d="M0 0h24v24H0z"/></g></g></svg>