<svg xmlns="http://www.w3.org/2000/svg" xmlns:xlink="http://www.w3.org/1999/xlink" width="24" height="24"><defs><path d="M20 19.278h-2.056c-.227.987-1.1 1.722-2.166 1.722s-1.94-.736-2.166-1.722h-3.224C10.16 20.264 9.277 21 8.222 21s-1.94-.736-2.166-1.722H4V6.216C3.4 5.752 3 4.933 3 4V3h18v1c0 .932-.4 1.75-1 2.215v13.063zM8.222 17.556a1.22 1.22 0 1 0 0 2.444 1.22 1.22 0 1 0 0-2.444zm7.556 0a1.22 1.22 0 1 0 0 2.444 1.22 1.22 0 1 0 0-2.444zm3.222.72V14H5v4.277h1.057c.227-.986 1.1-1.72 2.165-1.72s1.938.735 2.165 1.72h3.225c.227-.986 1.1-1.72 2.165-1.72s1.938.735 2.165 1.72H19zM17.108 5.52c-.388.665-1.025 1.1-1.745 1.1-.682 0-1.29-.388-1.682-.994-.39.605-.998.994-1.68.994-.7 0-1.323-.4-1.715-1.045-.4.634-1.012 1.045-1.713 1.045S7.25 6.2 6.858 5.575c-.4.634-1.012 1.045-1.713 1.045L5 6.613V13h14V6.614l-.146.006c-.72 0-1.358-.434-1.747-1.1zM20.1 4h-2.49c0 .903.574 1.604 1.246 1.604S20.1 4.903 20.1 4zm-3.492 0h-2.462l-.01.258c.095.776.62 1.347 1.227 1.347.67 0 1.246-.7 1.246-1.604zm-3.39 0h-2.462c0 .903.574 1.604 1.246 1.604.605 0 1.13-.57 1.23-1.342A2.62 2.62 0 0 1 13.217 4zM9.818 4h-2.49c0 .903.574 1.604 1.246 1.604S9.818 4.903 9.818 4zM6.39 4H3.9c0 .903.574 1.604 1.246 1.604S6.39 4.903 6.39 4z" id="A"/></defs><g fill-rule="evenodd"><mask id="B" fill="#fff"><use xlink:href="#A"/></mask><use fill="#979797" xlink:href="#A"/><g mask="url(#B)" fill="#b29577"><path d="M0 0h24v24H0z"/></g></g></svg>