<svg width="24" height="24" xmlns="http://www.w3.org/2000/svg" xmlns:xlink="http://www.w3.org/1999/xlink"><defs><path d="M17 3l4 6-9 12L3 9l4-6h10zm2.374 6.5h-4.069l-2.338 8.542L19.374 9.5zm-5.106 0H9.644l2.312 8.447L14.268 9.5zm-5.66 0H4.625l6.27 8.359L8.608 9.5zm-1.38-5.042L4.534 8.5h3.8L7.228 4.458zm9.482-.089L15.58 8.5h3.884L16.71 4.369zM12 4.118L9.809 8.5h4.381L12 4.118zm-1.059-.119H8.139L9.13 7.62l1.811-3.621zm4.833 0h-2.716l1.755 3.51.961-3.51z" id="a"/></defs><g fill="none" fill-rule="evenodd"><mask id="b" fill="#fff"><use xlink:href="#a"/></mask><use fill="#979797" fill-rule="nonzero" xlink:href="#a"/><g mask="url(#b)" fill="#B29577"><path d="M0 0h24v24H0z"/></g></g></svg>