<svg width="24" height="24" xmlns="http://www.w3.org/2000/svg" xmlns:xlink="http://www.w3.org/1999/xlink"><defs><path d="M3 21v-1h1v-6.17c-.292-.14-.583-.287-.874-.442l-.369-.2.486-.875c.252.14.505.274.757.403V11h1v2.192c.667.296 1.333.55 2 .762V3h10v10.955a19.366 19.366 0 002-.763V11h1v1.716l.392-.204.365-.2.486.875c-.414.23-.829.445-1.243.644V20h1v1H3zm2-6.719V20h2v-5c-.5-.15-1-.322-1.5-.517l-.5-.202zm12 .72V20h2v-5.719c-.667.28-1.333.52-2 .72zm-1 .27a16.93 16.93 0 01-8 0V20h8v-4.73zM16 4H8v10.24c2.667.68 5.332.68 8 0V4z" id="a"/></defs><g fill="none" fill-rule="evenodd"><mask id="b" fill="#fff"><use xlink:href="#a"/></mask><use fill="#979797" fill-rule="nonzero" xlink:href="#a"/><g mask="url(#b)" fill="#B29577"><path d="M0 0h24v24H0z"/></g></g></svg>