<?xml version="1.0" encoding="utf-8"?>
<!-- Generator: Adobe Illustrator 21.0.0, SVG Export Plug-In . SVG Version: 6.00 Build 0)  -->
<svg version="1.1" id="Layer_1" xmlns="http://www.w3.org/2000/svg" xmlns:xlink="http://www.w3.org/1999/xlink" x="0px" y="0px"
	 viewBox="0 0 40 40" style="enable-background:new 0 0 40 40;" xml:space="preserve">
<title>icon /spacetype/icon_markets_02</title>
<desc>Created with Sketch.</desc>
<path d="M31,3h-1h-6h-1h-6h-1h-6H9H2v3c0,1,0.4,1.9,1,2.6V24v1v11h4.6c0.5,2,2.2,3.5,4.4,3.5s3.9-1.5,4.4-3.5h7.2
	c0.5,2,2.2,3.5,4.4,3.5s3.9-1.5,4.4-3.5H37V25v-1V8.6C37.6,7.9,38,7,38,6V3H31z M24,4h6v2c0,1.7-1.3,3-3,3s-3-1.3-3-3V4z M17,4h6v2
	c0,1.7-1.3,3-3,3s-3-1.3-3-3V4z M10,4h6v2c0,1.7-1.3,3-3,3s-3-1.3-3-3V4z M3,4h6v2c0,1.7-1.3,3-3,3S3,7.7,3,6V4z M12,38.5
	c-1.6,0-2.9-1.1-3.3-2.5c-0.1-0.3-0.2-0.7-0.2-1c0-1.9,1.6-3.5,3.5-3.5s3.5,1.6,3.5,3.5c0,0.3-0.1,0.7-0.2,1
	C14.9,37.4,13.6,38.5,12,38.5z M28,38.5c-1.6,0-2.9-1.1-3.3-2.5c-0.1-0.3-0.2-0.7-0.2-1c0-1.9,1.6-3.5,3.5-3.5s3.5,1.6,3.5,3.5
	c0,0.3-0.1,0.7-0.2,1C30.9,37.4,29.6,38.5,28,38.5z M36,35h-3.5c0-2.5-2-4.5-4.5-4.5s-4.5,2-4.5,4.5h-7c0-2.5-2-4.5-4.5-4.5
	s-4.5,2-4.5,4.5H4V25h32V35z M36,24H4V9.4C4.6,9.8,5.3,10,6,10c1.5,0,2.8-0.9,3.5-2.1c0.7,1.2,2,2.1,3.5,2.1s2.8-0.9,3.5-2.1
	c0.7,1.2,2,2.1,3.5,2.1c1.5,0,2.8-0.9,3.5-2.1c0.7,1.2,2,2.1,3.5,2.1s2.8-0.9,3.5-2.1c0.7,1.2,2,2.1,3.5,2.1c0.7,0,1.4-0.2,2-0.6V24
	z M37,6c0,1.7-1.3,3-3,3s-3-1.3-3-3V4h6V6z"/>
</svg>
