<svg width="24" height="24" xmlns="http://www.w3.org/2000/svg" xmlns:xlink="http://www.w3.org/1999/xlink"><defs><path d="M20 11v9h1v1H3v-1h1v-9h2.5V4.822l.182-.15C8.433 3.23 10.208 2.5 12 2.5c1.692 0 3.37.652 5.026 1.938l.292.234.182.15V11H20zm-1 9v-8h-1.5v8H19zM6.5 12H5v8h1.5v-8zm5.5.5c-1.454 0-2.921.553-4.409 1.674l-.091.07v5.747H10V15h4v4.991h2.5v-5.746l-.091-.071C14.92 13.053 13.454 12.5 12 12.5zm1 3.5h-2v3.991h2V16zm-1-6.5c-1.454 0-2.921.553-4.409 1.674l-.091.07v1.766c1.486-1.003 2.988-1.51 4.5-1.51 1.513 0 3.015.507 4.5 1.51v-1.765l-.091-.071C14.92 10.053 13.454 9.5 12 9.5zm0-3c-1.454 0-2.921.553-4.409 1.674l-.091.07v1.766C8.986 9.007 10.488 8.5 12 8.5c1.513 0 3.015.507 4.5 1.51V8.246l-.091-.071C14.92 7.053 13.454 6.5 12 6.5zm0-3c-1.451 0-2.916.568-4.403 1.72l-.097.077V7.01C8.986 6.007 10.488 5.5 12 5.5c1.513 0 3.015.507 4.5 1.51V5.299l-.097-.077c-1.3-1.009-2.585-1.57-3.858-1.694l-.273-.02L12 3.5z" id="a"/></defs><g fill="none" fill-rule="evenodd"><mask id="b" fill="#fff"><use xlink:href="#a"/></mask><use fill="#979797" fill-rule="nonzero" xlink:href="#a"/><g mask="url(#b)" fill="#B29577"><path d="M0 0h24v24H0z"/></g></g></svg>