<svg width="24px" height="24px" viewBox="0 0 24 24" version="1.1" xmlns="http://www.w3.org/2000/svg" xmlns:xlink="http://www.w3.org/1999/xlink">
        <path d="M20,19.2778844 L17.9435429,19.2777909 C17.7167487,20.2643003 16.8332325,21 15.7778844,21 C14.7225363,21 13.8390201,20.2643003 13.6122259,19.2777909 L10.3877741,19.2777909 C10.1609799,20.2643003 9.27746371,21 8.22211561,21 C7.16676751,21 6.28325129,20.2643003 6.05645711,19.2777909 L4,19.2778844 L4.00015848,6.21583088 C3.3991112,5.75157385 3,4.93270326 3,4 L3,3 L21,3 L21,4 C21,4.93218796 20.6013297,5.75066899 20.0008375,6.21506106 L20,19.2778844 Z M8.22211561,17.5557688 C7.5471598,17.5557688 7,18.1029286 7,18.7778844 C7,19.4528402 7.5471598,20 8.22211561,20 C8.89707143,20 9.44423122,19.4528402 9.44423122,18.7778844 C9.44423122,18.1029286 8.89707143,17.5557688 8.22211561,17.5557688 Z M15.7778844,17.5557688 C15.1029286,17.5557688 14.5557688,18.1029286 14.5557688,18.7778844 C14.5557688,19.4528402 15.1029286,20 15.7778844,20 C16.4528402,20 17,19.4528402 17,18.7778844 C17,18.1029286 16.4528402,17.5557688 15.7778844,17.5557688 Z M19,18.277 L19,14 L5,14 L5,18.277 L6.05668821,18.277 C6.28385091,17.2909693 7.16712562,16.5557688 8.22211561,16.5557688 C9.2771056,16.5557688 10.1603803,17.2909693 10.387543,18.277 L13.612457,18.277 C13.8396197,17.2909693 14.7228944,16.5557688 15.7778844,16.5557688 C16.8328744,16.5557688 17.7161491,17.2909693 17.9433118,18.277 L19,18.277 Z M17.1075816,5.52139401 C16.720023,6.18645441 16.0825778,6.61998602 15.3622137,6.61998602 C14.6804532,6.61998602 14.0729628,6.23167457 13.6799678,5.62628828 C13.2892509,6.23167457 12.6817604,6.61998602 12,6.61998602 C11.2992807,6.61998602 10.6770195,6.20977743 10.2854687,5.57528338 C9.89573187,6.20977743 9.2734707,6.61998602 8.5727514,6.61998602 C7.8720321,6.61998602 7.24977093,6.20977743 6.8582201,5.57528338 C6.46848326,6.20977743 5.8462221,6.61998602 5.1455028,6.61998602 L5,6.613 L5,13 L19,13 L19.0004008,6.61402316 C18.9521853,6.61797716 18.9035334,6.61998602 18.8544972,6.61998602 C18.1341331,6.61998602 17.4966879,6.18645441 17.1075816,5.52139401 Z M20.1,4 L17.6089944,4 C17.6089944,4.90327307 18.1832107,5.60447871 18.8544972,5.60447871 C19.5257837,5.60447871 20.1,4.90327307 20.1,4 Z M16.6077165,4 L14.1455028,4 C14.1455028,4.08699199 14.1420309,4.17299375 14.1352471,4.25780991 C14.2297775,5.03352844 14.7564763,5.60447871 15.3622137,5.60447871 C16.0335002,5.60447871 16.6077165,4.90327307 16.6077165,4 Z M13.2167109,4 L10.7544972,4 C10.7544972,4.90327307 11.3287135,5.60447871 12,5.60447871 C12.6046844,5.60447871 13.1306047,5.03551177 13.2290115,4.26240178 C13.2202943,4.17573459 13.2167109,4.08837832 13.2167109,4 Z M9.8182542,4 L7.3272486,4 C7.3272486,4.90327307 7.9014649,5.60447871 8.5727514,5.60447871 C9.2440379,5.60447871 9.8182542,4.90327307 9.8182542,4 Z M6.39100559,4 L3.9,4 C3.9,4.90327307 4.47421629,5.60447871 5.1455028,5.60447871 C5.8167893,5.60447871 6.39100559,4.90327307 6.39100559,4 Z"></path>
</svg>