<svg width="24px" height="24px" viewBox="0 0 24 24" version="1.1" xmlns="http://www.w3.org/2000/svg" xmlns:xlink="http://www.w3.org/1999/xlink">
        <path d="M21,6 L20.960918,6.00036189 C20.8468382,6.7207409 20.4911022,7.33591371 20.0008375,7.71506106 L20,21 L4,21 L4.00015848,7.71583088 C3.50937966,7.3367467 3.15323903,6.72122865 3.03908205,6.00036189 L3,6 L3,3 L21,3 L21,6 Z M17.1075816,7.02139401 C16.720023,7.68645441 16.0825778,8.11998602 15.3622137,8.11998602 C14.6804532,8.11998602 14.0729628,7.73167457 13.6799678,7.12628828 C13.2892509,7.73167457 12.6817604,8.11998602 12,8.11998602 C11.2992807,8.11998602 10.6770195,7.70977743 10.2854687,7.07528338 C9.89573187,7.70977743 9.2734707,8.11998602 8.5727514,8.11998602 C7.8720321,8.11998602 7.24977093,7.70977743 6.8582201,7.07528338 C6.46848326,7.70977743 5.8462221,8.11998602 5.1455028,8.11998602 L5,8.113 L5,20 L9,20 L9,12 L15,12 L15,20 L19,20 L19.0004008,8.11402316 C18.9521853,8.11797716 18.9035334,8.11998602 18.8544972,8.11998602 C18.1341331,8.11998602 17.4966879,7.68645441 17.1075816,7.02139401 Z M14,13 L10,13 L10,20 L14,20 L14,13 Z M6.3291467,6.00124446 L3.9618589,6.00124446 C4.12743007,6.64988444 4.60500094,7.10447871 5.1455028,7.10447871 C5.68600465,7.10447871 6.16357553,6.64988444 6.3291467,6.00124446 Z M9.7563953,6.00124446 L7.3891075,6.00124446 C7.55467867,6.64988444 8.03224954,7.10447871 8.5727514,7.10447871 C9.11325326,7.10447871 9.59082413,6.64988444 9.7563953,6.00124446 Z M13.1836079,6.00138542 L10.8163561,6.00124446 C10.9819273,6.64988444 11.4594981,7.10447871 12,7.10447871 C12.5404627,7.10447871 13.0180035,6.6499503 13.1836079,6.00138542 Z M16.5458576,6.00124446 L14.1804217,6.00099812 C14.3442122,6.64995225 14.8217522,7.10447871 15.3622137,7.10447871 C15.9027156,7.10447871 16.3802864,6.64988444 16.5458576,6.00124446 Z M20.0381411,6.00124446 L17.6708533,6.00124446 C17.8364245,6.64988444 18.3139953,7.10447871 18.8544972,7.10447871 C19.3949991,7.10447871 19.8725699,6.64988444 20.0381411,6.00124446 Z M20,5 L20,4 L4,4 L4,5 L20,5 Z"></path>
</svg>