<svg width="24px" height="24px" viewBox="0 0 24 24" version="1.1" xmlns="http://www.w3.org/2000/svg" xmlns:xlink="http://www.w3.org/1999/xlink">
        <path d="M20,11 L20,20 L21,20 L21,21 L3,21 L3,20 L4,20 L4,11 L6.5,11 L6.5,4.82179172 L6.68223811,4.67178595 C8.43304823,3.23064049 10.2083205,2.5 12,2.5 C13.6921418,2.5 15.3696487,3.15171328 17.0257351,4.43817724 L17.3177619,4.67178595 L17.5,4.82179172 L17.5,11 L20,11 Z M19,20 L19,12 L17.5,12 L17.5,20 L19,20 Z M6.5,12 L5,12 L5,20 L6.5,20 L6.5,12 Z M12,12.5 C10.5461798,12.5 9.07892444,13.0526946 7.59148133,14.1736018 L7.5,14.244 L7.5,19.991 L10,19.991 L10,15 L14,15 L14,19.991 L16.5,19.991 L16.5,14.245 L16.4085187,14.1736018 C14.9210756,13.0526946 13.4538202,12.5 12,12.5 Z M13,16 L11,16 L11,19.991 L13,19.991 L13,16 Z M12,9.5 C10.5461798,9.5 9.07892444,10.0526946 7.59148133,11.1736018 L7.5,11.244 L7.5002987,13.0102667 C8.98609148,12.0071729 10.487624,11.5 12,11.5 C13.5127154,11.5 15.0145825,12.0074005 16.5007016,13.0109421 L16.5,11.245 L16.4085187,11.1736018 C14.9210756,10.0526946 13.4538202,9.5 12,9.5 Z M12,6.5 C10.5461798,6.5 9.07892444,7.0526946 7.59148133,8.17360178 L7.5,8.244 L7.5002987,10.0102667 C8.98609148,9.00717285 10.487624,8.5 12,8.5 C13.5127154,8.5 15.0145825,9.00740052 16.5007016,10.0109421 L16.5,8.245 L16.4085187,8.17360178 C14.9210756,7.0526946 13.4538202,6.5 12,6.5 Z M12,3.5 C10.5490317,3.5 9.08352963,4.06802228 7.5967784,5.22085397 L7.5,5.297 L7.5002987,7.01026666 C8.98609148,6.00717285 10.487624,5.5 12,5.5 C13.5127154,5.5 15.0145825,6.00740052 16.5007016,7.01094207 L16.5,5.298 L16.4032216,5.22085397 C15.1023143,4.21212624 13.8176758,3.65114322 12.5448075,3.52665883 L12.2722285,3.50666061 L12,3.5 Z"></path>
</svg>