<svg width="24px" height="24px" viewBox="0 0 24 24" version="1.1" xmlns="http://www.w3.org/2000/svg" xmlns:xlink="http://www.w3.org/1999/xlink">
        <path d="M4,3 L4,6.999 L10,6.999 L10,3 L11,3 L11,6.999 L20,7 L20,3 L21,3 L21,21 L20,21 L20,18 L11,17.999 L11,21 L10,21 L10,17.999 L4,17.999 L4,21 L3,21 L3,3 L4,3 Z M20,13 L11,12.999 L11,16.999 L20,17 L20,13 Z M10,12.999 L4,12.999 L4,16.999 L5,16.999 L5,14 L9,14 L9,16.999 L10,16.999 L10,12.999 Z M8,15 L6,15 L6,16.999 L8,16.999 L8,15 Z M18,9 L18,12 L20,12 L20,8 L11,7.999 L11,11.999 L14,11.999 L14,9 L18,9 Z M17,10 L15,10 L15,11.999 L17,11.999 L17,10 Z M10,7.999 L4,7.999 L4,11.999 L10,11.999 L10,7.999 Z"></path>
</svg>