<svg width="24px" height="24px" viewBox="0 0 24 24" version="1.1" xmlns="http://www.w3.org/2000/svg" xmlns:xlink="http://www.w3.org/1999/xlink">
        <path d="M17,3 L21,9 L12,21 L3,9 L7,3 L17,3 Z M19.374,9.49996601 L15.305,9.49996601 L12.967,18.041966 L19.374,9.49996601 Z M14.268,9.49996601 L9.644,9.49996601 L11.956,17.946966 L14.268,9.49996601 Z M8.608,9.49996601 L4.625,9.49996601 L10.895,17.858966 L8.608,9.49996601 Z M7.228,4.45796601 L4.534,8.49996601 L8.334,8.49996601 L7.228,4.45796601 Z M16.71,4.36896601 L15.58,8.49996601 L19.464,8.49996601 L16.71,4.36896601 Z M12,4.11763467 L9.809,8.49963467 L14.19,8.49963467 L12,4.11763467 Z M10.941,3.99896601 L8.139,3.99896601 L9.13,7.61996601 L10.941,3.99896601 Z M15.774,3.99896601 L13.058,3.99896601 L14.813,7.50896601 L15.774,3.99896601 Z"></path>
</svg>