<?xml version="1.0" encoding="utf-8"?>
<!-- Generator: Adobe Illustrator 21.0.0, SVG Export Plug-In . SVG Version: 6.00 Build 0)  -->
<svg version="1.1" id="Layer_1" xmlns="http://www.w3.org/2000/svg" xmlns:xlink="http://www.w3.org/1999/xlink" x="0px" y="0px"
	 viewBox="0 0 40 40" style="enable-background:new 0 0 40 40;" xml:space="preserve">
<title>icon /spacetype/icon_concessions_04</title>
<desc>Created with Sketch.</desc>
<path d="M37,2v3H15V2h-1v3H3V2H2v36h1v-8h2v0h7v0h2v8h1v-8h12v0h8v0h2v8h1V2H37z M3,6h11v11H3V6z M11,29H6v-6h5V29z M12,29v-7H5v7H3
	V18h11v11H12z M34,29h-6v-4h6V29z M37,29h-2v-5h-8v5H15V18h22V29z M18,17v-4h6v4H18z M28,17V9h6v8H28z M37,17h-2V8h-8v9h-2v-5h-8v5
	h-2V6h22V17z"/>
</svg>
